<?xml version="1.0" encoding="utf-8"?>
<!-- Generator: Adobe Illustrator 26.4.1, SVG Export Plug-In . SVG Version: 6.00 Build 0)  -->
<svg version="1.1" id="Layer_1" xmlns="http://www.w3.org/2000/svg" xmlns:xlink="http://www.w3.org/1999/xlink" x="0px" y="0px"
	 viewBox="0 0 40 40" style="enable-background:new 0 0 40 40;" xml:space="preserve">
<style type="text/css">
	.st0{fill-rule:evenodd;clip-rule:evenodd;fill:#2f70ef;}
	.st1{fill:#2f70ef;}
</style>
<path class="st0" d="M8.1,17.6c-0.4,0-0.7,0.3-0.7,0.7v15.4c0,0.4,0.3,0.7,0.7,0.7h0.4c0.4,0,0.7-0.3,0.7-0.7V18.2
	c0-0.4-0.3-0.7-0.7-0.7H8.1z M5.2,18.2c0-1.6,1.3-2.9,2.9-2.9h0.4c1.6,0,2.9,1.3,2.9,2.9v15.4c0,1.6-1.3,2.9-2.9,2.9H8.1
	c-1.6,0-2.9-1.3-2.9-2.9V18.2z"/>
<path class="st0" d="M16.1,22.5c-0.4,0-0.7,0.3-0.7,0.7v10.4c0,0.4,0.3,0.7,0.7,0.7h0.4c0.4,0,0.7-0.3,0.7-0.7V23.2
	c0-0.4-0.3-0.7-0.7-0.7H16.1z M13.2,23.2c0-1.6,1.3-2.9,2.9-2.9h0.4c1.6,0,2.9,1.3,2.9,2.9v10.4c0,1.6-1.3,2.9-2.9,2.9h-0.4
	c-1.6,0-2.9-1.3-2.9-2.9V23.2z"/>
<path class="st0" d="M24,27.5c-0.4,0-0.7,0.3-0.7,0.7v5.4c0,0.4,0.3,0.7,0.7,0.7h0.4c0.4,0,0.7-0.3,0.7-0.7v-5.4
	c0-0.4-0.3-0.7-0.7-0.7H24z M21.2,28.2c0-1.6,1.3-2.9,2.9-2.9h0.4c1.6,0,2.9,1.3,2.9,2.9v5.4c0,1.6-1.3,2.9-2.9,2.9H24
	c-1.6,0-2.9-1.3-2.9-2.9V28.2z"/>
<path class="st1" d="M29.2,24.4l5-1l-0.4-5L29.2,24.4z"/>
<path class="st0" d="M9,4.6C8.5,4.3,7.8,4.4,7.4,4.9C7.1,5.4,7.2,6.1,7.7,6.4l22,15.6l-1.3,1.8c-0.3,0.4-0.3,0.9-0.1,1.2
	s0.7,0.6,1.1,0.5l5-1c0.5-0.1,0.9-0.6,0.9-1.2l-0.4-5c0-0.4-0.4-0.8-0.8-0.9c-0.4-0.1-0.9,0-1.2,0.4L31,20.3L9,4.6z"/>
<path class="st0" d="M32,32.5c-0.4,0-0.7,0.3-0.7,0.7v0.4c0,0.4,0.3,0.7,0.7,0.7h0.4c0.4,0,0.7-0.3,0.7-0.7v-0.4
	c0-0.4-0.3-0.7-0.7-0.7H32z M29.1,33.2c0-1.6,1.3-2.9,2.9-2.9h0.4c1.6,0,2.9,1.3,2.9,2.9v0.4c0,1.6-1.3,2.9-2.9,2.9H32
	c-1.6,0-2.9-1.3-2.9-2.9V33.2z"/>
</svg>
