<svg xmlns="http://www.w3.org/2000/svg" width="46" height="24" viewBox="0 0 46 24">
    <g fill="none" fill-rule="evenodd">
        <path fill="#C83C37" d="M32.578 0H16.32v6.82c0 2.435 1.993 4.413 4.428 4.413h8.5c3.045 0 5.535 2.49 5.535 5.535v6.446c5.897-.975 10.413-5.779 10.413-11.516C45.196 5.264 39.518 0 32.578 0"/>
        <path fill="#00466E" d="M25.85 12.188h-8.473c-3.045 0-5.535-2.453-5.535-5.497V.112C5.261.487 0 5.594 0 11.786c0 6.435 5.678 11.7 12.619 11.7h17.66v-6.87a4.44 4.44 0 0 0-4.428-4.428"/>
    </g>
</svg>
