<?xml version="1.0" encoding="utf-8"?>
<!-- Generator: Adobe Illustrator 26.4.1, SVG Export Plug-In . SVG Version: 6.00 Build 0)  -->
<svg version="1.1" id="Layer_1" xmlns="http://www.w3.org/2000/svg" xmlns:xlink="http://www.w3.org/1999/xlink" x="0px" y="0px"
	 viewBox="0 0 40 40" style="enable-background:new 0 0 40 40;" xml:space="preserve">
<style type="text/css">
	.st0{fill-rule:evenodd;clip-rule:evenodd;fill:#2f70ef;}
</style>
<path class="st0" d="M11.5,9.7C11.6,9.3,12,9,12.5,9h15.3c0.4,0,0.8,0.3,1,0.7l2.2,7.2H9.4L11.5,9.7z M7.2,17.1l2.3-8
	C9.9,7.9,11.1,7,12.5,7h15.3c1.3,0,2.5,0.9,2.9,2.2l2.4,8.1c1.5,0.6,2.6,2,2.6,3.8v6.8c0,0.6-0.4,1-1,1h-1.2v2c0,1.2-1,2.2-2.2,2.2
	H30c-1.2,0-2.2-1-2.2-2.2v-2h-15v2c0,1.2-1,2.2-2.2,2.2H9.4c-1.2,0-2.2-1-2.2-2.2v-2H5.3c-0.6,0-1-0.4-1-1V21
	C4.3,19.2,5.6,17.6,7.2,17.1z M6.3,21c0-1.1,0.9-2,2-2h23.3c1.1,0,2,0.9,2,2v5.8H6.3V21z M29.8,30.8v-2h1.7v2c0,0.1-0.1,0.2-0.2,0.2
	H30C29.9,31,29.8,30.9,29.8,30.8z M10.8,28.8H9.1v2c0,0.1,0.1,0.2,0.2,0.2h1.2c0.1,0,0.2-0.1,0.2-0.2V28.8z M16,20.3
	c-0.6,0-1,0.4-1,1c0,0.6,0.4,1,1,1h8.6c0.6,0,1-0.4,1-1c0-0.6-0.4-1-1-1H16z M16.6,24.3c0-0.6,0.4-1,1-1h5.3c0.6,0,1,0.4,1,1
	s-0.4,1-1,1h-5.3C17.1,25.3,16.6,24.9,16.6,24.3z M30.2,22.6c0,0.4-0.3,0.8-0.8,0.8c-0.4,0-0.8-0.3-0.8-0.8c0-0.4,0.3-0.8,0.8-0.8
	C29.9,21.9,30.2,22.2,30.2,22.6z M32.2,22.6c0,1.5-1.2,2.8-2.8,2.8c-1.5,0-2.8-1.2-2.8-2.8c0-1.5,1.2-2.8,2.8-2.8
	C31,19.9,32.2,21.1,32.2,22.6z M10.8,23.4c0.4,0,0.8-0.3,0.8-0.8c0-0.4-0.3-0.8-0.8-0.8c-0.4,0-0.8,0.3-0.8,0.8
	C10.1,23.1,10.4,23.4,10.8,23.4z M10.8,25.4c1.5,0,2.8-1.2,2.8-2.8c0-1.5-1.2-2.8-2.8-2.8c-1.5,0-2.8,1.2-2.8,2.8
	C8.1,24.2,9.3,25.4,10.8,25.4z"/>
</svg>
